<?xml version="1.0" standalone="no"?>
<!DOCTYPE svg PUBLIC "-//W3C//DTD SVG 20010904//EN"
 "http://www.w3.org/TR/2001/REC-SVG-20010904/DTD/svg10.dtd">
<svg version="1.0" xmlns="http://www.w3.org/2000/svg"
 width="237.000000pt" height="237.000000pt" viewBox="0 0 237.000000 237.000000"
 preserveAspectRatio="xMidYMid meet">
<metadata>
Created by potrace 1.14, written by Peter Selinger 2001-2017
</metadata>
<g transform="translate(0.000000,237.000000) scale(0.100000,-0.100000)"
fill="#000000" stroke="none">
<path d="M1797 1615 c-1 -2 -36 -5 -77 -8 -41 -4 -147 -23 -235 -44 -143 -33
-174 -37 -295 -37 -110 0 -151 4 -220 23 -93 25 -108 29 -160 37 -19 3 -55 10
-80 14 -25 5 -99 7 -165 5 -95 -3 -149 -11 -258 -38 -75 -19 -140 -36 -143
-39 -5 -5 -7 -59 -5 -109 0 -15 17 -49 36 -77 25 -37 42 -81 64 -171 47 -187
84 -273 137 -319 71 -63 148 -87 279 -87 99 0 115 3 165 27 122 60 211 193
266 398 27 104 42 122 94 115 47 -7 64 -32 90 -134 31 -116 99 -248 154 -299
170 -157 456 -140 580 35 42 60 61 113 92 251 27 121 43 162 76 198 16 18 18
33 16 95 l-3 73 -112 32 c-93 27 -287 65 -296 59z m-926 -103 c116 -41 162
-79 180 -147 25 -90 -42 -301 -130 -413 -76 -96 -219 -139 -356 -107 -134 31
-187 102 -230 309 -28 139 -22 248 18 298 18 23 93 56 143 64 21 3 57 9 79 13
75 14 236 5 296 -17z m994 8 c86 -13 148 -42 175 -81 29 -39 34 -132 14 -249
-44 -262 -118 -346 -312 -355 -192 -8 -316 103 -392 350 -58 192 -6 283 193
335 79 21 196 21 322 0z"/>
<path d="M503 1497 c-3 -6 -7 -147 -7 -314 -1 -335 -7 -309 67 -297 l37 7 1
171 0 171 61 -162 60 -163 43 0 c80 0 75 -22 75 306 l0 293 -47 -3 c-27 -2
-50 -4 -53 -5 -3 -1 -5 -77 -5 -171 0 -93 -2 -166 -6 -162 -4 4 -34 78 -67
166 -34 87 -64 161 -67 164 -10 11 -85 10 -92 -1z"/>
<path d="M1580 1196 l0 -326 43 -1 c23 0 50 -2 59 -4 16 -3 18 8 17 113 0 65
0 125 0 135 1 15 9 17 79 11 l78 -6 2 56 c1 37 -3 56 -11 57 -7 0 -21 2 -32 4
-11 3 -41 5 -67 6 -52 2 -49 -3 -49 84 0 80 -3 76 44 71 23 -3 70 -8 105 -11
l62 -6 0 61 0 60 -47 1 c-27 0 -55 2 -64 4 -9 1 -62 6 -117 10 l-102 7 0 -326z"/>
</g>
</svg>
